{
  "accessors": [
    {
      "bufferView": 2,
      "componentType": 5126,
      "count": 2,
      "max": [
        -0.307545006275177,
        0.09488900005817413,
        -0.011114999651908875
      ],
      "min": [
        -0.3081830143928528,
        0.0941459983587265,
        -0.012024999596178532
      ],
      "type": "VEC3"
    },
    {
      "bufferView": 1,
      "componentType": 5126,
      "count": 2,
      "max": [
        0.0,
        0.0
      ],
      "min": [
        0.0,
        0.0
      ],
      "type": "VEC2"
    },
    {
      "bufferView": 0,
      "componentType": 5125,
      "count": 2,
      "type": "SCALAR"
    },
    {
      "bufferView": 2,
      "byteOffset": 24,
      "componentType": 5126,
      "count": 65534,
      "max": [
        0.4624969959259033,
        0.3215920031070709,
        0.5918009877204895
      ],
      "min": [
        -0.42529401183128357,
        -0.3128829896450043,
        -0.019262000918388367
      ],
      "type": "VEC3"
    },
    {
      "bufferView": 2,
      "byteOffset": 786432,
      "componentType": 5126,
      "count": 65534,
      "max": [
        0.999981164932251,
        0.9999430179595947,
        0.9997853636741638
      ],
      "min": [
        -0.9999160766601563,
        -0.9999945163726807,
        -0.9998780488967896
      ],
      "type": "VEC3"
    },
    {
      "bufferView": 3,
      "componentType": 5126,
      "count": 65534,
      "max": [
        0.9995425343513489,
        0.9999692440032959,
        0.9995970129966736,
        1.0
      ],
      "min": [
        -0.9997155070304871,
        -0.9999990463256836,
        -0.9999886751174927,
        -1.0
      ],
      "type": "VEC4"
    },
    {
      "bufferView": 1,
      "byteOffset": 16,
      "componentType": 5126,
      "count": 65534,
      "max": [
        0.9999750256538391,
        0.9999709725379944
      ],
      "min": [
        2.5999999706982635e-05,
        7.699999696342275e-05
      ],
      "type": "VEC2"
    },
    {
      "bufferView": 0,
      "byteOffset": 8,
      "componentType": 5125,
      "count": 65538,
      "type": "SCALAR"
    },
    {
      "bufferView": 2,
      "byteOffset": 1572840,
      "componentType": 5126,
      "count": 65534,
      "max": [
        0.4674670100212097,
        0.31957298517227173,
        0.5875419974327087
      ],
      "min": [
        -0.42196500301361084,
        -0.3154979944229126,
        -0.02264700084924698
      ],
      "type": "VEC3"
    },
    {
      "bufferView": 2,
      "byteOffset": 2359248,
      "componentType": 5126,
      "count": 65534,
      "max": [
        0.9998776912689209,
        0.9998843669891357,
        0.999885082244873
      ],
      "min": [
        -0.9999334812164307,
        -0.9999748468399048,
        -0.9992395043373108
      ],
      "type": "VEC3"
    },
    {
      "bufferView": 3,
      "byteOffset": 1048544,
      "componentType": 5126,
      "count": 65534,
      "max": [
        0.9999549388885498,
        0.9999935626983643,
        0.9997469186782837,
        1.0
      ],
      "min": [
        -0.9999498724937439,
        -0.9997972249984741,
        -0.9999988675117493,
        -1.0
      ],
      "type": "VEC4"
    },
    {
      "bufferView": 1,
      "byteOffset": 524288,
      "componentType": 5126,
      "count": 65534,
      "max": [
        0.9999679923057556,
        0.9999510049819946
      ],
      "min": [
        1.2999999853491317e-05,
        5.0999999075429514e-05
      ],
      "type": "VEC2"
    },
    {
      "bufferView": 0,
      "byteOffset": 262160,
      "componentType": 5125,
      "count": 65538,
      "type": "SCALAR"
    },
    {
      "bufferView": 2,
      "byteOffset": 3145656,
      "componentType": 5126,
      "count": 65533,
      "max": [
        0.45368099212646484,
        0.3189370036125183,
        0.5918009877204895
      ],
      "min": [
        -0.4331740140914917,
        -0.31520798802375793,
        -0.017315000295639038
      ],
      "type": "VEC3"
    },
    {
      "bufferView": 2,
      "byteOffset": 3932052,
      "componentType": 5126,
      "count": 65533,
      "max": [
        0.999958872795105,
        0.9999258518218994,
        0.9997624754905701
      ],
      "min": [
        -0.9999371767044067,
        -0.9999434947967529,
        -0.969409704208374
      ],
      "type": "VEC3"
    },
    {
      "bufferView": 3,
      "byteOffset": 2097088,
      "componentType": 5126,
      "count": 65533,
      "max": [
        0.9965728521347046,
        0.999990701675415,
        0.9998401999473572,
        1.0
      ],
      "min": [
        -0.9989906549453735,
        -0.9997093081474304,
        -0.9999944567680359,
        -1.0
      ],
      "type": "VEC4"
    },
    {
      "bufferView": 1,
      "byteOffset": 1048560,
      "componentType": 5126,
      "count": 65533,
      "max": [
        0.9998630285263062,
        0.9999179840087891
      ],
      "min": [
        2.5999999706982635e-05,
        0.0001289999927394092
      ],
      "type": "VEC2"
    },
    {
      "bufferView": 0,
      "byteOffset": 524312,
      "componentType": 5125,
      "count": 65541,
      "type": "SCALAR"
    },
    {
      "bufferView": 2,
      "byteOffset": 4718448,
      "componentType": 5126,
      "count": 65532,
      "max": [
        0.464821994304657,
        0.3215920031070709,
        0.5919569730758667
      ],
      "min": [
        -0.4331740140914917,
        -0.3154979944229126,
        -0.01679299958050251
      ],
      "type": "VEC3"
    },
    {
      "bufferView": 2,
      "byteOffset": 5504832,
      "componentType": 5126,
      "count": 65532,
      "max": [
        0.9999610185623169,
        0.99993896484375,
        0.9999866485595703
      ],
      "min": [
        -0.9998512268066406,
        -0.999919056892395,
        -0.9963990449905396
      ],
      "type": "VEC3"
    },
    {
      "bufferView": 3,
      "byteOffset": 3145616,
      "componentType": 5126,
      "count": 65532,
      "max": [
        0.9995573163032532,
        0.9999916553497314,
        0.9999811053276062,
        1.0
      ],
      "min": [
        -0.9997290968894958,
        -0.9996070265769958,
        -0.9999967217445374,
        -1.0
      ],
      "type": "VEC4"
    },
    {
      "bufferView": 1,
      "byteOffset": 1572824,
      "componentType": 5126,
      "count": 65532,
      "max": [
        0.9999759793281555,
        0.9999430179595947
      ],
      "min": [
        0.0019079999765381217,
        5.6000000768108293e-05
      ],
      "type": "VEC2"
    },
    {
      "bufferView": 0,
      "byteOffset": 786476,
      "componentType": 5125,
      "count": 65538,
      "type": "SCALAR"
    },
    {
      "bufferView": 2,
      "byteOffset": 6291216,
      "componentType": 5126,
      "count": 19086,
      "max": [
        0.4207879900932312,
        0.29189199209213257,
        0.5653290152549744
      ],
      "min": [
        -0.40990498661994934,
        -0.30974501371383667,
        -0.016392000019550323
      ],
      "type": "VEC3"
    },
    {
      "bufferView": 2,
      "byteOffset": 6520248,
      "componentType": 5126,
      "count": 19086,
      "max": [
        0.9996846318244934,
        0.9998183846473694,
        0.9999315738677979
      ],
      "min": [
        -0.9842149019241333,
        -0.9996597170829773,
        -0.9894605875015259
      ],
      "type": "VEC3"
    },
    {
      "bufferView": 3,
      "byteOffset": 4194128,
      "componentType": 5126,
      "count": 19086,
      "max": [
        0.9925596714019775,
        0.9999549388885498,
        0.9994850158691406,
        1.0
      ],
      "min": [
        -0.9864733815193176,
        -0.9986859560012817,
        -0.9999021887779236,
        -1.0
      ],
      "type": "VEC4"
    },
    {
      "bufferView": 1,
      "byteOffset": 2097080,
      "componentType": 5126,
      "count": 19086,
      "max": [
        0.9999840259552002,
        0.9999269843101501
      ],
      "min": [
        9.999999747378752e-06,
        3.7000001611886546e-05
      ],
      "type": "VEC2"
    },
    {
      "bufferView": 0,
      "byteOffset": 1048628,
      "componentType": 5125,
      "count": 19086,
      "type": "SCALAR"
    }
  ],
  "asset": {
    "extras": {
      "author": "Mirko Westermeier (https://sketchfab.com/memowe)",
      "license": "CC-BY-4.0 (http://creativecommons.org/licenses/by/4.0/)",
      "source": "https://sketchfab.com/3d-models/crime-scene-skull-5d96416529144c68998dd126bf0fa250",
      "title": "Crime Scene Skull"
    },
    "generator": "Sketchfab-12.66.0",
    "version": "2.0"
  },
  "bufferViews": [
    {
      "buffer": 0,
      "byteLength": 1124972,
      "name": "floatBufferViews",
      "target": 34963
    },
    {
      "buffer": 0,
      "byteLength": 2249768,
      "byteOffset": 1124972,
      "byteStride": 8,
      "name": "floatBufferViews",
      "target": 34962
    },
    {
      "buffer": 0,
      "byteLength": 6749280,
      "byteOffset": 3374740,
      "byteStride": 12,
      "name": "floatBufferViews",
      "target": 34962
    },
    {
      "buffer": 0,
      "byteLength": 4499504,
      "byteOffset": 10124020,
      "byteStride": 16,
      "name": "floatBufferViews",
      "target": 34962
    }
  ],
  "buffers": [
    {
      "byteLength": 14623524,
      "uri": "scene.bin"
    }
  ],
  "extensionsRequired": [
    "KHR_materials_pbrSpecularGlossiness"
  ],
  "extensionsUsed": [
    "KHR_materials_pbrSpecularGlossiness"
  ],
  "images": [
    {
      "uri": "textures/Skull_Material_diffuse.png"
    },
    {
      "uri": "textures/Skull_Material_normal.png"
    }
  ],
  "materials": [
    {
      "doubleSided": true,
      "extensions": {
        "KHR_materials_pbrSpecularGlossiness": {
          "diffuseFactor": [
            1.0,
            1.0,
            1.0,
            1.0
          ],
          "diffuseTexture": {
            "index": 0
          },
          "glossinessFactor": 1.0,
          "specularFactor": [
            0.0,
            0.0,
            0.0
          ]
        }
      },
      "name": "Skull_Material",
      "normalTexture": {
        "index": 1
      }
    }
  ],
  "meshes": [
    {
      "name": "Object_0",
      "primitives": [
        {
          "attributes": {
            "POSITION": 0,
            "TEXCOORD_0": 1
          },
          "indices": 2,
          "material": 0,
          "mode": 1
        }
      ]
    },
    {
      "name": "Object_1",
      "primitives": [
        {
          "attributes": {
            "NORMAL": 4,
            "POSITION": 3,
            "TANGENT": 5,
            "TEXCOORD_0": 6
          },
          "indices": 7,
          "material": 0,
          "mode": 4
        }
      ]
    },
    {
      "name": "Object_2",
      "primitives": [
        {
          "attributes": {
            "NORMAL": 9,
            "POSITION": 8,
            "TANGENT": 10,
            "TEXCOORD_0": 11
          },
          "indices": 12,
          "material": 0,
          "mode": 4
        }
      ]
    },
    {
      "name": "Object_3",
      "primitives": [
        {
          "attributes": {
            "NORMAL": 14,
            "POSITION": 13,
            "TANGENT": 15,
            "TEXCOORD_0": 16
          },
          "indices": 17,
          "material": 0,
          "mode": 4
        }
      ]
    },
    {
      "name": "Object_4",
      "primitives": [
        {
          "attributes": {
            "NORMAL": 19,
            "POSITION": 18,
            "TANGENT": 20,
            "TEXCOORD_0": 21
          },
          "indices": 22,
          "material": 0,
          "mode": 4
        }
      ]
    },
    {
      "name": "Object_5",
      "primitives": [
        {
          "attributes": {
            "NORMAL": 24,
            "POSITION": 23,
            "TANGENT": 25,
            "TEXCOORD_0": 26
          },
          "indices": 27,
          "material": 0,
          "mode": 4
        }
      ]
    }
  ],
  "nodes": [
    {
      "children": [
        1
      ],
      "matrix": [
        1.0,
        0.0,
        0.0,
        0.0,
        0.0,
        2.220446049250313e-16,
        -1.0,
        0.0,
        0.0,
        1.0,
        2.220446049250313e-16,
        0.0,
        0.0,
        0.0,
        0.0,
        1.0
      ],
      "name": "Sketchfab_model"
    },
    {
      "children": [
        2,
        3,
        4,
        5,
        6,
        7
      ],
      "name": "Skull_LP.obj.cleaner.materialmerger.gles"
    },
    {
      "mesh": 0,
      "name": "Object_2"
    },
    {
      "mesh": 1,
      "name": "Object_3"
    },
    {
      "mesh": 2,
      "name": "Object_4"
    },
    {
      "mesh": 3,
      "name": "Object_5"
    },
    {
      "mesh": 4,
      "name": "Object_6"
    },
    {
      "mesh": 5,
      "name": "Object_7"
    }
  ],
  "samplers": [
    {
      "magFilter": 9729,
      "minFilter": 9987,
      "wrapS": 10497,
      "wrapT": 10497
    }
  ],
  "scene": 0,
  "scenes": [
    {
      "name": "Sketchfab_Scene",
      "nodes": [
        0
      ]
    }
  ],
  "textures": [
    {
      "sampler": 0,
      "source": 0
    },
    {
      "sampler": 0,
      "source": 1
    }
  ]
}
